<svg width="180" height="180" viewBox="0 0 180 180" fill="none" xmlns="http://www.w3.org/2000/svg">
<path d="M90 25C134.183 25 170 60.8172 170 105C170 116.056 167.763 124.519 163.99 131.055C160.229 137.569 154.759 142.487 147.768 146.184C133.548 153.701 113.376 156 90 156C66.6244 156 46.4523 153.701 32.2324 146.184C25.241 142.487 19.7707 137.569 16.0098 131.055C12.2368 124.519 10 116.056 10 105C10 60.8172 45.8172 25 90 25Z" fill="#5E7193" stroke="#DDDFEE" stroke-width="10"/>
<path d="M25 140C31.3402 77.7984 62.9751 39.416 78 28" stroke="#DDDFEE" stroke-width="10"/>
<path d="M52 155.5C60.8 84.3 90.3333 38.1667 104 24" stroke="#DDDFEE" stroke-width="10"/>
<path d="M81.5 63.5C124.7 77.1 151.833 120.167 160 140" stroke="#DDDFEE" stroke-width="10"/>
<path d="M94 39C140.242 55.1437 163.268 87.7266 169 102" stroke="#DDDFEE" stroke-width="10"/>
<path d="M59.5 125C98.3 133 134.333 126 147.5 121.5" stroke="#DDDFEE" stroke-width="10"/>
<path d="M67.5 95C95.5 104.6 120.833 100.667 130 97.5" stroke="#DDDFEE" stroke-width="10"/>
</svg>
