<svg width="618" height="182" viewBox="0 0 618 182" fill="none" xmlns="http://www.w3.org/2000/svg">
<path d="M99 25C143.183 25 179 60.8172 179 105C179 116.056 176.763 124.519 172.99 131.055C169.229 137.569 163.759 142.487 156.768 146.184C142.548 153.701 122.376 156 99 156C75.6244 156 55.4523 153.701 41.2324 146.184C34.241 142.487 28.7707 137.569 25.0098 131.055C21.2368 124.519 19 116.056 19 105C19 60.8172 54.8172 25 99 25Z" fill="#5E7193" stroke="#DDDFEE" stroke-width="10"/>
<path d="M34 140C40.3402 77.7984 71.9751 39.416 87 28" stroke="#DDDFEE" stroke-width="10"/>
<path d="M61 155.5C69.8 84.3 99.3333 38.1667 113 24" stroke="#DDDFEE" stroke-width="10"/>
<path d="M90.5 63.5C133.7 77.1 160.833 120.167 169 140" stroke="#DDDFEE" stroke-width="10"/>
<path d="M103 39C149.242 55.1437 172.268 87.7266 178 102" stroke="#DDDFEE" stroke-width="10"/>
<path d="M68.5 125C107.3 133 143.333 126 156.5 121.5" stroke="#DDDFEE" stroke-width="10"/>
<path d="M76.5 95C104.5 104.6 129.833 100.667 139 97.5" stroke="#DDDFEE" stroke-width="10"/>
<path d="M235.304 130.392C229.757 130.392 225.448 129.048 222.376 126.36C219.347 123.672 217.832 119.363 217.832 113.432V79.512C217.832 78.1893 218.28 77.08 219.176 76.184C220.115 75.2453 221.245 74.776 222.568 74.776C223.891 74.776 225.021 75.2453 225.96 76.184C226.899 77.08 227.368 78.1893 227.368 79.512V113.432C227.368 116.205 227.965 118.168 229.16 119.32C230.397 120.429 232.445 120.984 235.304 120.984C237.565 120.984 239.805 120.344 242.024 119.064C244.243 117.784 246.077 115.608 247.528 112.536C248.125 111.341 249.021 110.531 250.216 110.104C251.453 109.677 252.669 109.763 253.864 110.36C255.059 110.915 255.848 111.811 256.232 113.048C256.659 114.243 256.616 115.459 256.104 116.696C254.867 119.555 253.181 122.008 251.048 124.056C248.957 126.104 246.547 127.661 243.816 128.728C241.128 129.837 238.291 130.392 235.304 130.392ZM290.152 131.48C286.269 131.48 283.176 130.541 280.872 128.664C278.611 126.787 277.48 124.077 277.48 120.536C277.48 117.336 278.653 114.797 281 112.92C283.347 111 286.525 110.04 290.536 110.04C291.005 110.04 291.453 110.061 291.88 110.104C292.349 110.104 292.797 110.125 293.224 110.168L293.096 105.112C291.133 105.155 289.213 105.155 287.336 105.112C285.501 105.069 283.837 105.027 282.344 104.984C281.107 104.899 280.061 104.365 279.208 103.384C278.397 102.36 278.056 101.208 278.184 99.928C278.269 98.6907 278.803 97.6667 279.784 96.856C280.765 96.0453 281.896 95.6827 283.176 95.768C284.541 95.8107 286.056 95.8533 287.72 95.896C289.384 95.9387 291.091 95.96 292.84 95.96L292.776 91.48C290.856 91.48 289 91.4587 287.208 91.416C285.459 91.3733 283.837 91.3307 282.344 91.288C281.107 91.2027 280.061 90.6693 279.208 89.688C278.397 88.7067 278.056 87.576 278.184 86.296C278.269 85.016 278.803 83.9707 279.784 83.16C280.765 82.3493 281.896 81.9867 283.176 82.072C285.907 82.2853 289.064 82.3493 292.648 82.264V78.296C292.648 76.9733 293.096 75.8427 293.992 74.904C294.931 73.9653 296.061 73.496 297.384 73.496C298.707 73.496 299.816 73.9653 300.712 74.904C301.651 75.8427 302.12 76.9733 302.12 78.296C302.12 78.8507 302.12 79.448 302.12 80.088C302.163 80.6853 302.184 81.3253 302.184 82.008C303.763 81.9227 305.256 81.8373 306.664 81.752C308.072 81.624 309.352 81.4747 310.504 81.304C311.784 81.1333 312.915 81.432 313.896 82.2C314.92 82.968 315.517 83.992 315.688 85.272C315.901 86.5093 315.603 87.64 314.792 88.664C314.024 89.688 313.021 90.2853 311.784 90.456C310.461 90.6267 308.989 90.776 307.368 90.904C305.747 90.9893 304.061 91.0747 302.312 91.16L302.376 95.64C303.912 95.5547 305.363 95.4693 306.728 95.384C308.136 95.256 309.395 95.1067 310.504 94.936C311.784 94.7653 312.915 95.064 313.896 95.832C314.92 96.6 315.517 97.624 315.688 98.904C315.901 100.184 315.603 101.336 314.792 102.36C314.024 103.384 313.021 103.96 311.784 104.088C310.461 104.259 309.011 104.408 307.432 104.536C305.896 104.621 304.275 104.707 302.568 104.792L302.76 112.024C305.192 112.792 307.475 113.709 309.608 114.776C311.741 115.843 313.661 116.952 315.368 118.104C316.477 118.829 317.139 119.853 317.352 121.176C317.565 122.456 317.309 123.629 316.584 124.696C315.816 125.763 314.792 126.424 313.512 126.68C312.232 126.936 311.037 126.68 309.928 125.912C308.861 125.144 307.709 124.419 306.472 123.736C305.277 123.011 304.061 122.349 302.824 121.752C302.44 124.995 301.16 127.427 298.984 129.048C296.851 130.669 293.907 131.48 290.152 131.48ZM290.088 122.392C291.368 122.392 292.243 122.179 292.712 121.752C293.224 121.283 293.459 120.579 293.416 119.64V118.808C292.264 118.68 291.155 118.616 290.088 118.616C288.936 118.616 288.125 118.787 287.656 119.128C287.229 119.469 287.016 119.939 287.016 120.536C287.016 121.091 287.229 121.539 287.656 121.88C288.125 122.221 288.936 122.392 290.088 122.392ZM357.224 130.584C356.029 131.267 354.749 131.395 353.384 130.968C352.061 130.584 351.08 129.795 350.44 128.6C349.757 127.363 349.587 126.104 349.928 124.824C350.269 123.501 351.037 122.52 352.232 121.88C354.792 120.472 356.947 118.915 358.696 117.208C360.445 115.501 361.832 113.496 362.856 111.192C363.923 108.888 364.691 106.157 365.16 103C365.629 99.8427 365.864 96.1307 365.864 91.864C365.864 90.1147 365.8 88.1947 365.672 86.104C365.544 84.0133 365.373 82.3067 365.16 80.984C364.989 79.6187 365.352 78.4027 366.248 77.336C367.144 76.2693 368.253 75.672 369.576 75.544C370.941 75.416 372.136 75.7787 373.16 76.632C374.227 77.4853 374.845 78.5947 375.016 79.96C375.229 81.5813 375.379 83.48 375.464 85.656C375.592 87.7893 375.656 89.8587 375.656 91.864C375.656 97.9227 375.144 103.363 374.12 108.184C373.096 113.005 371.261 117.272 368.616 120.984C365.971 124.653 362.173 127.853 357.224 130.584ZM349.864 109.528C348.499 109.443 347.389 108.888 346.536 107.864C345.725 106.84 345.384 105.581 345.512 104.088C345.597 102.936 345.64 101.485 345.64 99.736C345.64 97.9867 345.597 96.1093 345.512 94.104C345.427 92.0987 345.32 90.136 345.192 88.216C345.064 86.296 344.893 84.6107 344.68 83.16C344.509 81.6667 344.872 80.408 345.768 79.384C346.664 78.3173 347.773 77.72 349.096 77.592C350.461 77.5067 351.656 77.8693 352.68 78.68C353.704 79.4907 354.301 80.5787 354.472 81.944C354.6 83.1813 354.728 84.8027 354.856 86.808C354.984 88.8133 355.091 90.968 355.176 93.272C355.261 95.5333 355.325 97.7307 355.368 99.864C355.411 101.955 355.389 103.725 355.304 105.176C355.261 106.541 354.685 107.629 353.576 108.44C352.467 109.251 351.229 109.613 349.864 109.528ZM410.024 125.336C408.744 125.805 407.464 125.763 406.184 125.208C404.947 124.611 404.093 123.672 403.624 122.392C403.155 121.112 403.197 119.832 403.752 118.552C404.349 117.272 405.288 116.419 406.568 115.992C409.896 114.84 413.267 113.389 416.68 111.64C420.136 109.891 423.443 107.992 426.6 105.944C429.8 103.896 432.68 101.784 435.24 99.608C437.843 97.432 439.976 95.3413 441.64 93.336C442.493 92.2693 443.581 91.6933 444.904 91.608C446.269 91.48 447.485 91.8427 448.552 92.696C449.661 93.5067 450.259 94.5947 450.344 95.96C450.472 97.3253 450.109 98.5413 449.256 99.608C447.464 101.784 445.096 104.088 442.152 106.52C439.251 108.952 436.008 111.363 432.424 113.752C428.84 116.099 425.107 118.296 421.224 120.344C417.384 122.349 413.651 124.013 410.024 125.336ZM414.568 99.288C412.861 97.88 411.048 96.472 409.128 95.064C407.208 93.6133 405.437 92.4187 403.816 91.48C402.621 90.7547 401.875 89.752 401.576 88.472C401.277 87.1493 401.469 85.912 402.152 84.76C402.835 83.5653 403.837 82.7973 405.16 82.456C406.525 82.1147 407.763 82.3067 408.872 83.032C410.152 83.8427 411.517 84.76 412.968 85.784C414.461 86.7653 415.869 87.768 417.192 88.792C418.557 89.816 419.709 90.7333 420.648 91.544C421.672 92.3973 422.291 93.4853 422.504 94.808C422.717 96.1307 422.397 97.3467 421.544 98.456C420.733 99.5227 419.624 100.163 418.216 100.376C416.851 100.547 415.635 100.184 414.568 99.288ZM471.272 127.384C467.901 127.555 465.085 126.829 462.824 125.208C460.605 123.587 459.496 121.24 459.496 118.168C459.496 115.992 460.136 114.136 461.416 112.6C462.739 111.021 464.424 109.805 466.472 108.952C468.563 108.056 470.717 107.587 472.936 107.544C473.917 107.459 474.856 107.544 475.752 107.8C476.648 108.013 477.48 108.312 478.248 108.696V106.648C478.248 104.856 477.864 103.704 477.096 103.192C476.328 102.637 475.24 102.36 473.832 102.36C472.68 102.36 471.485 102.509 470.248 102.808C469.053 103.064 467.88 103.427 466.728 103.896C465.491 104.408 464.424 104.6 463.528 104.472C462.675 104.301 461.949 103.725 461.352 102.744C460.797 101.763 460.669 100.824 460.968 99.928C461.267 98.9893 462.056 98.2427 463.336 97.688C464.872 97.0053 466.515 96.4507 468.264 96.024C470.056 95.5973 471.912 95.384 473.832 95.384C477.8 95.384 480.808 96.1947 482.856 97.816C484.904 99.4373 485.928 102.381 485.928 106.648V120.088C485.928 120.515 485.949 120.813 485.992 120.984C486.12 121.581 486.355 121.987 486.696 122.2C487.08 122.371 487.464 122.499 487.848 122.584C488.232 122.627 488.552 122.712 488.808 122.84C489.107 122.925 489.256 123.181 489.256 123.608C489.256 124.419 489.021 125.144 488.552 125.784C488.125 126.424 487.4 126.851 486.376 127.064C485.907 127.149 485.416 127.213 484.904 127.256C484.392 127.341 483.859 127.384 483.304 127.384C480.787 127.384 479.187 126.531 478.504 124.824C476.541 126.317 474.131 127.171 471.272 127.384ZM471.08 120.472C473.341 120.344 475.133 119.917 476.456 119.192C477.821 118.424 478.461 117.379 478.376 116.056C478.333 115.075 477.843 114.435 476.904 114.136C476.008 113.837 474.899 113.731 473.576 113.816C471.613 113.901 470.056 114.413 468.904 115.352C467.752 116.248 467.197 117.208 467.24 118.232C467.283 118.957 467.603 119.533 468.2 119.96C468.84 120.344 469.8 120.515 471.08 120.472ZM498.932 139.416C496.244 139.416 494.9 138.008 494.9 135.192V100.376C494.9 97.56 496.073 96.152 498.42 96.152C500.724 96.152 501.94 96.6213 502.068 97.56L502.26 99.032C504.436 96.6 507.124 95.384 510.324 95.384C513.225 95.384 515.806 96.024 518.068 97.304C520.329 98.5413 522.1 100.376 523.38 102.808C524.702 105.197 525.364 108.12 525.364 111.576C525.364 114.989 524.702 117.912 523.38 120.344C522.1 122.733 520.329 124.568 518.068 125.848C515.806 127.085 513.225 127.704 510.324 127.704C507.55 127.704 505.097 126.744 502.964 124.824V135.192C502.964 138.008 501.62 139.416 498.932 139.416ZM510.003 120.408C512.052 120.408 513.758 119.661 515.124 118.168C516.532 116.632 517.236 114.435 517.236 111.576C517.236 108.675 516.532 106.477 515.124 104.984C513.758 103.448 512.052 102.68 510.003 102.68C507.956 102.68 506.249 103.448 504.884 104.984C503.518 106.477 502.836 108.675 502.836 111.576C502.836 114.435 503.518 116.632 504.884 118.168C506.249 119.661 507.956 120.408 510.003 120.408ZM535.244 139.416C532.556 139.416 531.212 138.008 531.212 135.192V100.376C531.212 97.56 532.385 96.152 534.732 96.152C537.036 96.152 538.252 96.6213 538.38 97.56L538.572 99.032C540.748 96.6 543.436 95.384 546.636 95.384C549.537 95.384 552.119 96.024 554.38 97.304C556.641 98.5413 558.412 100.376 559.692 102.808C561.015 105.197 561.676 108.12 561.676 111.576C561.676 114.989 561.015 117.912 559.692 120.344C558.412 122.733 556.641 124.568 554.38 125.848C552.119 127.085 549.537 127.704 546.636 127.704C543.863 127.704 541.409 126.744 539.276 124.824V135.192C539.276 138.008 537.932 139.416 535.244 139.416ZM546.316 120.408C548.364 120.408 550.071 119.661 551.436 118.168C552.844 116.632 553.548 114.435 553.548 111.576C553.548 108.675 552.844 106.477 551.436 104.984C550.071 103.448 548.364 102.68 546.316 102.68C544.268 102.68 542.561 103.448 541.196 104.984C539.831 106.477 539.148 108.675 539.148 111.576C539.148 114.435 539.831 116.632 541.196 118.168C542.561 119.661 544.268 120.408 546.316 120.408ZM578.725 127.64C576.933 127.64 575.183 127.427 573.477 127C571.813 126.616 570.234 125.955 568.741 125.016C567.546 124.248 566.906 123.373 566.821 122.392C566.735 121.368 567.098 120.408 567.909 119.512C568.719 118.659 569.551 118.253 570.405 118.296C571.301 118.296 572.346 118.637 573.541 119.32C575.205 120.216 577.082 120.664 579.173 120.664C580.794 120.664 581.925 120.472 582.565 120.088C583.205 119.661 583.525 118.893 583.525 117.784C583.525 117.315 583.354 116.909 583.013 116.568C582.714 116.184 582.053 115.843 581.029 115.544C580.047 115.203 578.554 114.84 576.549 114.456C573.434 113.859 571.023 112.835 569.317 111.384C567.653 109.933 566.821 107.757 566.821 104.856C566.821 102.936 567.333 101.272 568.357 99.864C569.381 98.4133 570.767 97.304 572.517 96.536C574.309 95.7253 576.314 95.32 578.533 95.32C581.562 95.32 584.293 95.8747 586.725 96.984C588.005 97.624 588.73 98.4347 588.901 99.416C589.114 100.397 588.858 101.357 588.133 102.296C587.407 103.235 586.597 103.725 585.701 103.768C584.847 103.768 583.802 103.533 582.565 103.064C581.925 102.808 581.285 102.637 580.645 102.552C580.005 102.424 579.343 102.36 578.661 102.36C577.253 102.36 576.293 102.595 575.781 103.064C575.269 103.491 575.013 104.003 575.013 104.6C575.013 105.027 575.141 105.411 575.397 105.752C575.653 106.093 576.207 106.435 577.061 106.776C577.914 107.075 579.237 107.437 581.029 107.864C584.57 108.675 587.237 109.912 589.029 111.576C590.863 113.197 591.781 115.373 591.781 118.104C591.781 121.304 590.543 123.693 588.069 125.272C585.637 126.851 582.522 127.64 578.725 127.64Z" fill="black"/>
</svg>
